<svg width="167" height="167" viewBox="0 0 167 167" fill="none" xmlns="http://www.w3.org/2000/svg">
<path d="M86.8561 42.8444C85.755 42.1154 84.4605 41.7336 83.14 41.7485C81.8196 41.7634 80.534 42.1742 79.4496 42.9279L46.2584 66.049C45.3854 66.656 44.6721 67.465 44.1793 68.4072C43.6864 69.3493 43.4286 70.3966 43.4277 71.4598V96.3595C43.4284 97.4503 43.6995 98.5239 44.2168 99.4842C44.7341 100.445 45.4815 101.262 46.392 101.862L80.1176 124.157C81.1956 124.868 82.4585 125.247 83.7499 125.247C85.0412 125.247 86.3042 124.868 87.3821 124.157L121.784 101.428C122.692 100.827 123.437 100.011 123.953 99.0524C124.468 98.0937 124.739 97.0223 124.74 95.9337V71.4682C124.742 70.3767 124.473 69.3019 123.957 68.3401C123.441 67.3783 122.694 66.5595 121.784 65.9572L86.8477 42.8444H86.8561ZM112.549 69.8149L99.832 78.3569L87.9082 69.6896L87.833 52.6306L112.549 69.8232V69.8149ZM79.2075 52.6556V69.3473L66.9914 77.881L54.8004 69.7063L79.2075 52.6473V52.6556ZM51.4688 77.9311L59.3512 83.2166L51.4688 88.736V77.9311ZM79.4162 113.51L54.8088 97.0108L67.1 88.4187L79.4162 96.6852V113.51V113.51ZM74.7402 83.083L82.7145 77.5136L91.983 83.6091L83.7666 89.1368L74.7486 83.083H74.7402ZM88.1086 113.51V96.6768L99.8821 88.7944L112.549 97.1194L88.1086 113.51ZM116.056 89.0199L107.706 83.5339L116.056 77.9311V89.0199Z" fill="#BE8572"/>
<path d="M33.4 16.7C28.9709 16.7 24.7232 18.4595 21.5913 21.5913C18.4595 24.7232 16.7 28.9709 16.7 33.4V133.6C16.7 138.029 18.4595 142.277 21.5913 145.409C24.7232 148.541 28.9709 150.3 33.4 150.3H133.6C138.029 150.3 142.277 148.541 145.409 145.409C148.541 142.277 150.3 138.029 150.3 133.6V33.4C150.3 28.9709 148.541 24.7232 145.409 21.5913C142.277 18.4595 138.029 16.7 133.6 16.7H33.4ZM33.4 0H133.6C142.458 0 150.954 3.51892 157.217 9.78263C163.481 16.0463 167 24.5418 167 33.4V133.6C167 142.458 163.481 150.954 157.217 157.217C150.954 163.481 142.458 167 133.6 167H33.4C24.5418 167 16.0463 163.481 9.78263 157.217C3.51892 150.954 0 142.458 0 133.6V33.4C0 24.5418 3.51892 16.0463 9.78263 9.78263C16.0463 3.51892 24.5418 0 33.4 0V0Z" fill="#BE8572"/>
</svg>
