<svg width="167" height="167" viewBox="0 0 167 167" fill="none" xmlns="http://www.w3.org/2000/svg">
<path fill-rule="evenodd" clip-rule="evenodd" d="M34 0C15.2223 0 0 15.2223 0 34V133C0 151.778 15.2223 167 34 167H133C151.778 167 167 151.778 167 133V34C167 15.2223 151.778 0 133 0H34ZM16 34C16 24.0589 24.0589 16 34 16H133C142.941 16 151 24.0589 151 34V133C151 142.941 142.941 151 133 151H34C24.0589 151 16 142.941 16 133V34ZM32 102.995V61.0049L41.5455 61V102.995H32ZM46.7668 102.995V61.0049H59.7391L63.0227 81.0846L65.4091 61.0049H78.8348V103H70.1818V79.5655L66.3016 103H60.1877L55.8636 79.5655V102.995H46.7668ZM84.0514 102.391V61.0049L95.5345 61C102.283 61 103.467 61.4888 105.58 62.3605C105.708 62.4136 105.84 62.4681 105.977 62.524C107.877 63.4929 108.812 65.9859 108.812 68.9121V94.1725C108.812 96.607 107.877 98.9831 105.977 99.9569C104.078 101.418 101.744 102.391 95.5345 102.391H84.0514ZM113.585 102.995V61.6086H124.171V70.7429C125.125 69.7691 127.865 67.8507 130.733 67.8507C133.611 67.8507 137 70.3777 137 73.7811V98.1261C137 99.5966 136.513 100.96 134.614 101.934C133.284 102.39 132.365 102.389 130.329 102.387C130.173 102.387 130.011 102.387 129.841 102.387C128.728 102.387 126.942 101.76 125.463 101.241C124.417 100.874 123.524 100.561 123.13 100.561C122.644 100.069 122.233 102.995 122.233 102.995H113.585ZM97.9257 69.3698C97.9257 67.432 95.945 67.393 94.0455 67.393V95.6965C95.482 95.6965 97.9257 95.6575 97.9257 93.7148V69.3698ZM126.557 74.2388C126.557 72.7732 125.999 72.262 125.517 72.262C124.614 72.262 124.617 73.172 124.619 74.098C124.619 74.1466 124.62 74.1952 124.62 74.2437V95.083C124.62 96.5486 125.03 97.0647 125.517 97.0647C126.467 97.0647 126.557 96.0568 126.557 95.083V74.2388Z" fill="#BE8572"/>
</svg>
