<svg width="167" height="167" viewBox="0 0 167 167" fill="none" xmlns="http://www.w3.org/2000/svg">
<path d="M125.25 92.9354V123.805H107.356V94.9978C107.356 87.7667 104.767 82.8319 98.2879 82.8319C93.3447 82.8319 90.3971 86.1552 89.1028 89.3783C88.6352 90.5306 88.51 92.1338 88.51 93.737V123.805H70.6076C70.6076 123.805 70.8498 75.0246 70.6076 69.9729H88.51V77.5964L88.3931 77.7718H88.51V77.6047C90.8898 73.9307 95.1315 68.7036 104.642 68.7036C116.416 68.7036 125.25 76.4024 125.25 92.9354V92.9354ZM51.8785 44.0127C45.758 44.0127 41.75 48.0374 41.75 53.3146C41.75 58.4916 45.6411 62.6248 51.6447 62.6248H51.7616C58.0074 62.6248 61.8902 58.4833 61.8902 53.3146C61.7733 48.0374 58.0074 44.0127 51.8785 44.0127V44.0127ZM42.8104 123.805H60.7129V69.9729H42.8104V123.805V123.805Z" fill="#A3563C"/>
<path d="M33.4 16.7C28.9709 16.7 24.7232 18.4595 21.5913 21.5913C18.4595 24.7232 16.7 28.9709 16.7 33.4V133.6C16.7 138.029 18.4595 142.277 21.5913 145.409C24.7232 148.541 28.9709 150.3 33.4 150.3H133.6C138.029 150.3 142.277 148.541 145.409 145.409C148.541 142.277 150.3 138.029 150.3 133.6V33.4C150.3 28.9709 148.541 24.7232 145.409 21.5913C142.277 18.4595 138.029 16.7 133.6 16.7H33.4ZM33.4 0H133.6C142.458 0 150.954 3.51892 157.217 9.78263C163.481 16.0463 167 24.5418 167 33.4V133.6C167 142.458 163.481 150.954 157.217 157.217C150.954 163.481 142.458 167 133.6 167H33.4C24.5418 167 16.0463 163.481 9.78263 157.217C3.51892 150.954 0 142.458 0 133.6V33.4C0 24.5418 3.51892 16.0463 9.78263 9.78263C16.0463 3.51892 24.5418 0 33.4 0V0Z" fill="#A3563C"/>
</svg>
