<svg width="118" height="152" viewBox="0 0 118 152" fill="none" xmlns="http://www.w3.org/2000/svg">
<rect width="118" height="152" fill="#F0D8D0"/>
<path d="M25.968 31.248C25.7227 31.3973 25.44 31.5413 25.12 31.68C24.8 31.8187 24.448 31.9253 24.064 32C23.68 32.0853 23.264 32.128 22.816 32.128C21.952 32.128 21.168 31.9787 20.464 31.68C19.76 31.3707 19.1573 30.9547 18.656 30.432C18.1547 29.8987 17.7653 29.2907 17.488 28.608C17.2213 27.9147 17.088 27.1787 17.088 26.4C17.088 25.568 17.232 24.7947 17.52 24.08C17.808 23.3653 18.2133 22.7413 18.736 22.208C19.2587 21.6747 19.8667 21.2587 20.56 20.96C21.2533 20.6613 22.0053 20.512 22.816 20.512C23.4133 20.512 23.9733 20.592 24.496 20.752C25.0187 20.912 25.4933 21.12 25.92 21.376L25.584 22.096C25.2107 21.8613 24.7893 21.664 24.32 21.504C23.8507 21.344 23.3547 21.264 22.832 21.264C22.16 21.264 21.5253 21.3973 20.928 21.664C20.3307 21.92 19.8027 22.2827 19.344 22.752C18.896 23.2107 18.544 23.7493 18.288 24.368C18.032 24.9867 17.904 25.6533 17.904 26.368C17.904 27.0507 18.016 27.696 18.24 28.304C18.4747 28.912 18.8053 29.4453 19.232 29.904C19.6693 30.3627 20.192 30.7253 20.8 30.992C21.408 31.248 22.0853 31.376 22.832 31.376C23.3867 31.376 23.8933 31.3013 24.352 31.152C24.8213 30.992 25.2373 30.7947 25.6 30.56L25.968 31.248ZM29.0305 20.64H29.8145V31.248H36.0385V32H29.0305V20.64ZM38.8311 20.64H39.6151V32H38.8311V20.64ZM51.5574 31.248C51.312 31.3973 51.0294 31.5413 50.7094 31.68C50.3894 31.8187 50.0374 31.9253 49.6534 32C49.2694 32.0853 48.8534 32.128 48.4054 32.128C47.5414 32.128 46.7574 31.9787 46.0534 31.68C45.3494 31.3707 44.7467 30.9547 44.2454 30.432C43.744 29.8987 43.3547 29.2907 43.0774 28.608C42.8107 27.9147 42.6774 27.1787 42.6774 26.4C42.6774 25.568 42.8214 24.7947 43.1094 24.08C43.3974 23.3653 43.8027 22.7413 44.3254 22.208C44.848 21.6747 45.456 21.2587 46.1494 20.96C46.8427 20.6613 47.5947 20.512 48.4054 20.512C49.0027 20.512 49.5627 20.592 50.0854 20.752C50.608 20.912 51.0827 21.12 51.5094 21.376L51.1734 22.096C50.8 21.8613 50.3787 21.664 49.9094 21.504C49.44 21.344 48.944 21.264 48.4214 21.264C47.7494 21.264 47.1147 21.3973 46.5174 21.664C45.92 21.92 45.392 22.2827 44.9334 22.752C44.4854 23.2107 44.1334 23.7493 43.8774 24.368C43.6214 24.9867 43.4934 25.6533 43.4934 26.368C43.4934 27.0507 43.6054 27.696 43.8294 28.304C44.064 28.912 44.3947 29.4453 44.8214 29.904C45.2587 30.3627 45.7814 30.7253 46.3894 30.992C46.9974 31.248 47.6747 31.376 48.4214 31.376C48.976 31.376 49.4827 31.3013 49.9414 31.152C50.4107 30.992 50.8267 30.7947 51.1894 30.56L51.5574 31.248ZM55.4199 25.76L55.3879 26.32L55.4359 26.176L61.0519 20.64H62.0599L57.3559 25.296L62.5879 32H61.5959L56.7799 25.792L55.4039 27.104L55.4199 32H54.6199V20.64H55.4199V25.76ZM69.4185 20.64H76.8585V21.392H73.5145V32H72.7305V21.392H69.4185V20.64ZM88.1409 20.64V32H87.3569V26.656H80.5089V32H79.7249V20.64H80.5089V25.92H87.3569V20.64H88.1409ZM91.9161 20.64H98.9241V21.392H92.7001V25.904H98.3001V26.656H92.7001V31.248H99.1481V32H91.9161V20.64ZM17.808 44.64H18.592V56H17.808V44.64ZM22.3742 56V44.384H22.3902L27.9903 52.336L27.6543 52.288L33.2383 44.384H33.2543V56H32.4863V46.192L32.5503 46.576L27.8142 53.248H27.7823L23.0143 46.576L23.1423 46.224V56H22.3742ZM36.0422 56L40.8422 44.144H40.9062L45.7063 56H44.8263L40.6502 45.392L41.1943 45.088L36.8262 56H36.0422ZM38.3622 51.504H43.4023L43.6263 52.24H38.1702L38.3622 51.504ZM56.6921 55.2C56.5001 55.328 56.2655 55.4507 55.9881 55.568C55.7215 55.6747 55.4335 55.7707 55.1241 55.856C54.8148 55.9413 54.4948 56.0053 54.1641 56.048C53.8441 56.1013 53.5401 56.128 53.2521 56.128C52.3561 56.128 51.5455 55.984 50.8201 55.696C50.1055 55.3973 49.4921 54.992 48.9801 54.48C48.4681 53.9573 48.0735 53.3547 47.7961 52.672C47.5295 51.9787 47.3961 51.232 47.3961 50.432C47.3961 49.568 47.5455 48.7733 47.8441 48.048C48.1535 47.3227 48.5748 46.6987 49.1081 46.176C49.6415 45.6427 50.2601 45.232 50.9641 44.944C51.6681 44.656 52.4148 44.512 53.2041 44.512C53.8015 44.512 54.3615 44.5867 54.8841 44.736C55.4175 44.8853 55.8975 45.088 56.3241 45.344L56.0361 46.048C55.7908 45.8987 55.5135 45.7707 55.2041 45.664C54.8948 45.5467 54.5748 45.456 54.2441 45.392C53.9241 45.328 53.6041 45.296 53.2841 45.296C52.5588 45.296 51.8868 45.424 51.2681 45.68C50.6495 45.936 50.1108 46.2933 49.6521 46.752C49.1935 47.2107 48.8361 47.7493 48.5801 48.368C48.3241 48.9867 48.1961 49.6587 48.1961 50.384C48.1961 51.088 48.3135 51.744 48.5481 52.352C48.7935 52.9493 49.1348 53.4773 49.5721 53.936C50.0201 54.384 50.5535 54.736 51.1721 54.992C51.7908 55.2373 52.4788 55.36 53.2361 55.36C53.6841 55.36 54.1535 55.3067 54.6441 55.2C55.1348 55.0933 55.5561 54.9387 55.9081 54.736V51.584H53.3481V50.832H56.6921V55.2ZM60.1355 44.64H67.1435V45.392H60.9195V49.904H66.5195V50.656H60.9195V55.248H67.3675V56H60.1355V44.64ZM74.6685 44.64H82.1085V45.392H78.7645V56H77.9805V45.392H74.6685V44.64ZM83.6768 50.336C83.6768 49.536 83.8261 48.7893 84.1248 48.096C84.4234 47.392 84.8394 46.7733 85.3728 46.24C85.9061 45.696 86.5194 45.2747 87.2128 44.976C87.9168 44.6667 88.6688 44.512 89.4688 44.512C90.2688 44.512 91.0208 44.6667 91.7248 44.976C92.4288 45.2747 93.0474 45.696 93.5808 46.24C94.1141 46.7733 94.5301 47.392 94.8288 48.096C95.1381 48.7893 95.2928 49.536 95.2928 50.336C95.2928 51.136 95.1381 51.888 94.8288 52.592C94.5301 53.2853 94.1141 53.8987 93.5808 54.432C93.0474 54.9653 92.4288 55.3813 91.7248 55.68C91.0208 55.9787 90.2688 56.128 89.4688 56.128C88.6688 56.128 87.9168 55.984 87.2128 55.696C86.5194 55.408 85.9061 55.0027 85.3728 54.48C84.8394 53.9573 84.4234 53.344 84.1248 52.64C83.8261 51.936 83.6768 51.168 83.6768 50.336ZM84.4768 50.352C84.4768 51.0453 84.6048 51.696 84.8608 52.304C85.1168 52.912 85.4741 53.4453 85.9328 53.904C86.3914 54.3627 86.9194 54.7253 87.5168 54.992C88.1248 55.248 88.7701 55.376 89.4528 55.376C90.1568 55.376 90.8128 55.248 91.4208 54.992C92.0288 54.7253 92.5621 54.3627 93.0208 53.904C93.4794 53.4453 93.8368 52.912 94.0928 52.304C94.3594 51.696 94.4928 51.04 94.4928 50.336C94.4928 49.6427 94.3594 48.992 94.0928 48.384C93.8368 47.7653 93.4794 47.2267 93.0208 46.768C92.5621 46.2987 92.0288 45.9307 91.4208 45.664C90.8128 45.3973 90.1621 45.264 89.4688 45.264C88.7648 45.264 88.1088 45.4027 87.5008 45.68C86.8928 45.9467 86.3594 46.3147 85.9008 46.784C85.4528 47.2533 85.1008 47.7973 84.8448 48.416C84.5994 49.024 84.4768 49.6693 84.4768 50.352ZM23.488 69.92C23.1573 69.76 22.752 69.6107 22.272 69.472C21.792 69.3333 21.312 69.264 20.832 69.264C20.0853 69.264 19.488 69.4507 19.04 69.824C18.592 70.1973 18.368 70.6667 18.368 71.232C18.368 71.6587 18.496 72.016 18.752 72.304C19.008 72.5813 19.344 72.8213 19.76 73.024C20.176 73.216 20.6187 73.4027 21.088 73.584C21.4613 73.7227 21.8293 73.8773 22.192 74.048C22.5653 74.2187 22.9013 74.4267 23.2 74.672C23.4987 74.9173 23.7333 75.2213 23.904 75.584C24.0853 75.9467 24.176 76.3947 24.176 76.928C24.176 77.5573 24.0267 78.1173 23.728 78.608C23.4293 79.088 23.0133 79.4613 22.48 79.728C21.9467 79.9947 21.328 80.128 20.624 80.128C20.0587 80.128 19.5413 80.0587 19.072 79.92C18.6133 79.7813 18.208 79.6213 17.856 79.44C17.5147 79.248 17.2427 79.088 17.04 78.96L17.408 78.32C17.6427 78.4907 17.9253 78.6613 18.256 78.832C18.5973 79.0027 18.9653 79.1467 19.36 79.264C19.7547 79.3813 20.1493 79.44 20.544 79.44C21.0027 79.44 21.4453 79.3493 21.872 79.168C22.3093 78.9867 22.6667 78.7147 22.944 78.352C23.232 77.9787 23.376 77.5093 23.376 76.944C23.376 76.4 23.2427 75.9627 22.976 75.632C22.7093 75.2907 22.368 75.0133 21.952 74.8C21.536 74.5867 21.0933 74.3947 20.624 74.224C20.2613 74.0853 19.8987 73.9413 19.536 73.792C19.1733 73.632 18.8427 73.4453 18.544 73.232C18.2453 73.008 18.0053 72.7413 17.824 72.432C17.6533 72.1227 17.568 71.7493 17.568 71.312C17.568 70.768 17.7067 70.2933 17.984 69.888C18.2613 69.4827 18.6347 69.168 19.104 68.944C19.584 68.7093 20.128 68.5867 20.736 68.576C21.2693 68.576 21.808 68.6453 22.352 68.784C22.9067 68.9227 23.3867 69.0987 23.792 69.312L23.488 69.92ZM27.2649 68.64H34.2729V69.392H28.0489V73.904H33.6489V74.656H28.0489V79.248H34.4969V80H27.2649V68.64ZM37.6436 68.64H44.6516V69.392H38.4276V73.904H44.0276V74.656H38.4276V79.248H44.8756V80H37.6436V68.64ZM53.0886 80V68.384H53.1046L58.7046 76.336L58.3686 76.288L63.9526 68.384H63.9686V80H63.2006V70.192L63.2646 70.576L58.5286 77.248H58.4966L53.7286 70.576L53.8566 70.224V80H53.0886ZM67.0286 74.336C67.0286 73.536 67.178 72.7893 67.4766 72.096C67.7753 71.392 68.1913 70.7733 68.7246 70.24C69.258 69.696 69.8713 69.2747 70.5646 68.976C71.2686 68.6667 72.0206 68.512 72.8206 68.512C73.6206 68.512 74.3726 68.6667 75.0766 68.976C75.7806 69.2747 76.3993 69.696 76.9326 70.24C77.466 70.7733 77.882 71.392 78.1806 72.096C78.49 72.7893 78.6446 73.536 78.6446 74.336C78.6446 75.136 78.49 75.888 78.1806 76.592C77.882 77.2853 77.466 77.8987 76.9326 78.432C76.3993 78.9653 75.7806 79.3813 75.0766 79.68C74.3726 79.9787 73.6206 80.128 72.8206 80.128C72.0206 80.128 71.2686 79.984 70.5646 79.696C69.8713 79.408 69.258 79.0027 68.7246 78.48C68.1913 77.9573 67.7753 77.344 67.4766 76.64C67.178 75.936 67.0286 75.168 67.0286 74.336ZM67.8286 74.352C67.8286 75.0453 67.9566 75.696 68.2126 76.304C68.4686 76.912 68.826 77.4453 69.2846 77.904C69.7433 78.3627 70.2713 78.7253 70.8686 78.992C71.4766 79.248 72.122 79.376 72.8046 79.376C73.5086 79.376 74.1646 79.248 74.7726 78.992C75.3806 78.7253 75.914 78.3627 76.3726 77.904C76.8313 77.4453 77.1886 76.912 77.4446 76.304C77.7113 75.696 77.8446 75.04 77.8446 74.336C77.8446 73.6427 77.7113 72.992 77.4446 72.384C77.1886 71.7653 76.8313 71.2267 76.3726 70.768C75.914 70.2987 75.3806 69.9307 74.7726 69.664C74.1646 69.3973 73.514 69.264 72.8206 69.264C72.1166 69.264 71.4606 69.4027 70.8526 69.68C70.2446 69.9467 69.7113 70.3147 69.2526 70.784C68.8046 71.2533 68.4526 71.7973 68.1966 72.416C67.9513 73.024 67.8286 73.6693 67.8286 74.352ZM84.2975 68.64C84.7242 68.64 85.1455 68.704 85.5615 68.832C85.9882 68.9493 86.3722 69.1413 86.7135 69.408C87.0655 69.664 87.3482 69.9947 87.5615 70.4C87.7748 70.8053 87.8815 71.2907 87.8815 71.856C87.8815 72.2827 87.8175 72.6987 87.6895 73.104C87.5615 73.4987 87.3535 73.856 87.0655 74.176C86.7775 74.496 86.4042 74.752 85.9455 74.944C85.4868 75.136 84.9215 75.232 84.2495 75.232H82.4895V80H81.7055V68.64H84.2975ZM84.2015 74.48C84.7668 74.48 85.2362 74.4 85.6095 74.24C85.9828 74.08 86.2762 73.872 86.4895 73.616C86.7028 73.36 86.8522 73.0827 86.9375 72.784C87.0335 72.4747 87.0815 72.176 87.0815 71.888C87.0815 71.5467 87.0175 71.2267 86.8895 70.928C86.7722 70.6293 86.5962 70.368 86.3615 70.144C86.1268 69.9093 85.8442 69.728 85.5135 69.6C85.1828 69.4613 84.8148 69.392 84.4095 69.392H82.4895V74.48H84.2015ZM85.8335 74.832L88.9855 80H88.0735L84.9055 74.848L85.8335 74.832ZM91.9905 68.64H98.9985V69.392H92.7745V73.904H98.3745V74.656H92.7745V79.248H99.2225V80H91.9905V68.64ZM25.968 103.248C25.7227 103.397 25.44 103.541 25.12 103.68C24.8 103.819 24.448 103.925 24.064 104C23.68 104.085 23.264 104.128 22.816 104.128C21.952 104.128 21.168 103.979 20.464 103.68C19.76 103.371 19.1573 102.955 18.656 102.432C18.1547 101.899 17.7653 101.291 17.488 100.608C17.2213 99.9147 17.088 99.1787 17.088 98.4C17.088 97.568 17.232 96.7947 17.52 96.08C17.808 95.3653 18.2133 94.7413 18.736 94.208C19.2587 93.6747 19.8667 93.2587 20.56 92.96C21.2533 92.6613 22.0053 92.512 22.816 92.512C23.4133 92.512 23.9733 92.592 24.496 92.752C25.0187 92.912 25.4933 93.12 25.92 93.376L25.584 94.096C25.2107 93.8613 24.7893 93.664 24.32 93.504C23.8507 93.344 23.3547 93.264 22.832 93.264C22.16 93.264 21.5253 93.3973 20.928 93.664C20.3307 93.92 19.8027 94.2827 19.344 94.752C18.896 95.2107 18.544 95.7493 18.288 96.368C18.032 96.9867 17.904 97.6533 17.904 98.368C17.904 99.0507 18.016 99.696 18.24 100.304C18.4747 100.912 18.8053 101.445 19.232 101.904C19.6693 102.363 20.192 102.725 20.8 102.992C21.408 103.248 22.0853 103.376 22.832 103.376C23.3867 103.376 23.8933 103.301 24.352 103.152C24.8213 102.992 25.2373 102.795 25.6 102.56L25.968 103.248ZM28.3105 98.336C28.3105 97.536 28.4598 96.7893 28.7585 96.096C29.0572 95.392 29.4732 94.7733 30.0065 94.24C30.5398 93.696 31.1532 93.2747 31.8465 92.976C32.5505 92.6667 33.3025 92.512 34.1025 92.512C34.9025 92.512 35.6545 92.6667 36.3585 92.976C37.0625 93.2747 37.6812 93.696 38.2145 94.24C38.7478 94.7733 39.1638 95.392 39.4625 96.096C39.7718 96.7893 39.9265 97.536 39.9265 98.336C39.9265 99.136 39.7718 99.888 39.4625 100.592C39.1638 101.285 38.7478 101.899 38.2145 102.432C37.6812 102.965 37.0625 103.381 36.3585 103.68C35.6545 103.979 34.9025 104.128 34.1025 104.128C33.3025 104.128 32.5505 103.984 31.8465 103.696C31.1532 103.408 30.5398 103.003 30.0065 102.48C29.4732 101.957 29.0572 101.344 28.7585 100.64C28.4598 99.936 28.3105 99.168 28.3105 98.336ZM29.1105 98.352C29.1105 99.0453 29.2385 99.696 29.4945 100.304C29.7505 100.912 30.1078 101.445 30.5665 101.904C31.0252 102.363 31.5532 102.725 32.1505 102.992C32.7585 103.248 33.4038 103.376 34.0865 103.376C34.7905 103.376 35.4465 103.248 36.0545 102.992C36.6625 102.725 37.1958 102.363 37.6545 101.904C38.1132 101.445 38.4705 100.912 38.7265 100.304C38.9932 99.696 39.1265 99.04 39.1265 98.336C39.1265 97.6427 38.9932 96.992 38.7265 96.384C38.4705 95.7653 38.1132 95.2267 37.6545 94.768C37.1958 94.2987 36.6625 93.9307 36.0545 93.664C35.4465 93.3973 34.7958 93.264 34.1025 93.264C33.3985 93.264 32.7425 93.4027 32.1345 93.68C31.5265 93.9467 30.9932 94.3147 30.5345 94.784C30.0865 95.2533 29.7345 95.7973 29.4785 96.416C29.2332 97.024 29.1105 97.6693 29.1105 98.352ZM42.9874 104V92.64H45.7874C46.886 92.64 47.8194 92.816 48.5874 93.168C49.366 93.5093 49.9954 93.9627 50.4754 94.528C50.9554 95.0933 51.3074 95.712 51.5314 96.384C51.7554 97.056 51.8674 97.7227 51.8674 98.384C51.8674 99.248 51.718 100.027 51.4194 100.72C51.1207 101.403 50.71 101.989 50.1874 102.48C49.6754 102.971 49.0887 103.349 48.4274 103.616C47.766 103.872 47.0674 104 46.3314 104H42.9874ZM43.7714 103.248H46.1234C46.806 103.248 47.446 103.136 48.0434 102.912C48.6407 102.688 49.1634 102.363 49.6114 101.936C50.07 101.509 50.4274 100.997 50.6834 100.4C50.9394 99.792 51.0674 99.104 51.0674 98.336C51.0674 97.6853 50.9554 97.0667 50.7314 96.48C50.518 95.8827 50.1927 95.3547 49.7554 94.896C49.318 94.4373 48.7794 94.0747 48.1394 93.808C47.4994 93.5413 46.7527 93.408 45.8994 93.408H43.7714V103.248ZM54.9286 92.64H61.9366V93.392H55.7126V97.904H61.3126V98.656H55.7126V103.248H62.1606V104H54.9286V92.64ZM67.9314 92.64C68.6354 92.64 69.2487 92.7627 69.7714 93.008C70.3047 93.2427 70.7154 93.6 71.0034 94.08C71.302 94.5493 71.4514 95.1413 71.4514 95.856C71.4514 96.2827 71.382 96.6987 71.2434 97.104C71.1154 97.4987 70.902 97.856 70.6034 98.176C70.3154 98.496 69.942 98.752 69.4834 98.944C69.0354 99.136 68.4914 99.232 67.8514 99.232H66.0914V104H65.3074V92.64H67.9314ZM67.8514 98.48C68.406 98.48 68.8647 98.3947 69.2274 98.224C69.6007 98.0427 69.8887 97.8187 70.0914 97.552C70.3047 97.2747 70.454 96.9867 70.5394 96.688C70.6354 96.3893 70.6834 96.112 70.6834 95.856C70.6834 95.4933 70.6247 95.1627 70.5074 94.864C70.39 94.5653 70.214 94.3093 69.9794 94.096C69.7554 93.872 69.478 93.7013 69.1474 93.584C68.8167 93.456 68.438 93.392 68.0114 93.392H66.0914V98.48H67.8514ZM74.3267 92.64H81.3347V93.392H75.1107V97.904H80.7107V98.656H75.1107V103.248H81.5587V104H74.3267V92.64ZM94.2095 104.272L85.2495 94.176L85.4575 94.016L85.4735 104H84.7055V92.4H84.7535L93.7135 102.576L93.5055 102.64L93.4895 92.64H94.2415V104.272H94.2095ZM97.0618 100.448H100.022V101.12H97.0618V100.448ZM20.432 116.64C21.136 116.64 21.7493 116.763 22.272 117.008C22.8053 117.243 23.216 117.6 23.504 118.08C23.8027 118.549 23.952 119.141 23.952 119.856C23.952 120.283 23.8827 120.699 23.744 121.104C23.616 121.499 23.4027 121.856 23.104 122.176C22.816 122.496 22.4427 122.752 21.984 122.944C21.536 123.136 20.992 123.232 20.352 123.232H18.592V128H17.808V116.64H20.432ZM20.352 122.48C20.9067 122.48 21.3653 122.395 21.728 122.224C22.1013 122.043 22.3893 121.819 22.592 121.552C22.8053 121.275 22.9547 120.987 23.04 120.688C23.136 120.389 23.184 120.112 23.184 119.856C23.184 119.493 23.1253 119.163 23.008 118.864C22.8907 118.565 22.7147 118.309 22.48 118.096C22.256 117.872 21.9787 117.701 21.648 117.584C21.3173 117.456 20.9387 117.392 20.512 117.392H18.592V122.48H20.352ZM29.4194 116.64C29.846 116.64 30.2674 116.704 30.6834 116.832C31.11 116.949 31.494 117.141 31.8354 117.408C32.1874 117.664 32.47 117.995 32.6834 118.4C32.8967 118.805 33.0034 119.291 33.0034 119.856C33.0034 120.283 32.9394 120.699 32.8114 121.104C32.6834 121.499 32.4754 121.856 32.1874 122.176C31.8994 122.496 31.526 122.752 31.0674 122.944C30.6087 123.136 30.0434 123.232 29.3714 123.232H27.6114V128H26.8274V116.64H29.4194ZM29.3234 122.48C29.8887 122.48 30.358 122.4 30.7314 122.24C31.1047 122.08 31.398 121.872 31.6114 121.616C31.8247 121.36 31.974 121.083 32.0594 120.784C32.1554 120.475 32.2034 120.176 32.2034 119.888C32.2034 119.547 32.1394 119.227 32.0114 118.928C31.894 118.629 31.718 118.368 31.4834 118.144C31.2487 117.909 30.966 117.728 30.6354 117.6C30.3047 117.461 29.9367 117.392 29.5314 117.392H27.6114V122.48H29.3234ZM30.9554 122.832L34.1074 128H33.1954L30.0274 122.848L30.9554 122.832ZM36.283 122.336C36.283 121.536 36.4323 120.789 36.731 120.096C37.0297 119.392 37.4457 118.773 37.979 118.24C38.5123 117.696 39.1257 117.275 39.819 116.976C40.523 116.667 41.275 116.512 42.075 116.512C42.875 116.512 43.627 116.667 44.331 116.976C45.035 117.275 45.6537 117.696 46.187 118.24C46.7203 118.773 47.1363 119.392 47.435 120.096C47.7443 120.789 47.899 121.536 47.899 122.336C47.899 123.136 47.7443 123.888 47.435 124.592C47.1363 125.285 46.7203 125.899 46.187 126.432C45.6537 126.965 45.035 127.381 44.331 127.68C43.627 127.979 42.875 128.128 42.075 128.128C41.275 128.128 40.523 127.984 39.819 127.696C39.1257 127.408 38.5123 127.003 37.979 126.48C37.4457 125.957 37.0297 125.344 36.731 124.64C36.4323 123.936 36.283 123.168 36.283 122.336ZM37.083 122.352C37.083 123.045 37.211 123.696 37.467 124.304C37.723 124.912 38.0803 125.445 38.539 125.904C38.9977 126.363 39.5257 126.725 40.123 126.992C40.731 127.248 41.3763 127.376 42.059 127.376C42.763 127.376 43.419 127.248 44.027 126.992C44.635 126.725 45.1683 126.363 45.627 125.904C46.0857 125.445 46.443 124.912 46.699 124.304C46.9657 123.696 47.099 123.04 47.099 122.336C47.099 121.643 46.9657 120.992 46.699 120.384C46.443 119.765 46.0857 119.227 45.627 118.768C45.1683 118.299 44.635 117.931 44.027 117.664C43.419 117.397 42.7683 117.264 42.075 117.264C41.371 117.264 40.715 117.403 40.107 117.68C39.499 117.947 38.9657 118.315 38.507 118.784C38.059 119.253 37.707 119.797 37.451 120.416C37.2057 121.024 37.083 121.669 37.083 122.352ZM52.6239 126.288C52.6239 127.131 52.4692 127.851 52.1599 128.448C51.8505 129.045 51.4345 129.499 50.9119 129.808C50.3999 130.128 49.8185 130.299 49.1679 130.32V129.568C49.9359 129.525 50.5705 129.221 51.0719 128.656C51.5839 128.091 51.8399 127.285 51.8399 126.24V116.64H52.6239V126.288ZM56.4011 116.64H63.4091V117.392H57.1851V121.904H62.7851V122.656H57.1851V127.248H63.6331V128H56.4011V116.64ZM74.9399 127.248C74.6945 127.397 74.4119 127.541 74.0919 127.68C73.7719 127.819 73.4199 127.925 73.0359 128C72.6519 128.085 72.2359 128.128 71.7879 128.128C70.9239 128.128 70.1399 127.979 69.4359 127.68C68.7319 127.371 68.1292 126.955 67.6279 126.432C67.1265 125.899 66.7372 125.291 66.4599 124.608C66.1932 123.915 66.0599 123.179 66.0599 122.4C66.0599 121.568 66.2039 120.795 66.4919 120.08C66.7799 119.365 67.1852 118.741 67.7079 118.208C68.2305 117.675 68.8385 117.259 69.5319 116.96C70.2252 116.661 70.9772 116.512 71.7879 116.512C72.3852 116.512 72.9452 116.592 73.4679 116.752C73.9905 116.912 74.4652 117.12 74.8919 117.376L74.5559 118.096C74.1825 117.861 73.7612 117.664 73.2919 117.504C72.8225 117.344 72.3265 117.264 71.8039 117.264C71.1319 117.264 70.4972 117.397 69.8999 117.664C69.3025 117.92 68.7745 118.283 68.3159 118.752C67.8679 119.211 67.5159 119.749 67.2599 120.368C67.0039 120.987 66.8759 121.653 66.8759 122.368C66.8759 123.051 66.9879 123.696 67.2119 124.304C67.4465 124.912 67.7772 125.445 68.2039 125.904C68.6412 126.363 69.1639 126.725 69.7719 126.992C70.3799 127.248 71.0572 127.376 71.8039 127.376C72.3585 127.376 72.8652 127.301 73.3239 127.152C73.7932 126.992 74.2092 126.795 74.5719 126.56L74.9399 127.248ZM77.0904 116.64H84.5304V117.392H81.1864V128H80.4024V117.392H77.0904V116.64ZM93.0768 117.92C92.7461 117.76 92.3408 117.611 91.8608 117.472C91.3808 117.333 90.9008 117.264 90.4208 117.264C89.6741 117.264 89.0768 117.451 88.6288 117.824C88.1808 118.197 87.9568 118.667 87.9568 119.232C87.9568 119.659 88.0848 120.016 88.3408 120.304C88.5968 120.581 88.9328 120.821 89.3488 121.024C89.7648 121.216 90.2074 121.403 90.6768 121.584C91.0501 121.723 91.4181 121.877 91.7808 122.048C92.1541 122.219 92.4901 122.427 92.7888 122.672C93.0874 122.917 93.3221 123.221 93.4928 123.584C93.6741 123.947 93.7648 124.395 93.7648 124.928C93.7648 125.557 93.6154 126.117 93.3168 126.608C93.0181 127.088 92.6021 127.461 92.0688 127.728C91.5354 127.995 90.9168 128.128 90.2128 128.128C89.6474 128.128 89.1301 128.059 88.6608 127.92C88.2021 127.781 87.7968 127.621 87.4448 127.44C87.1034 127.248 86.8314 127.088 86.6288 126.96L86.9968 126.32C87.2314 126.491 87.5141 126.661 87.8448 126.832C88.1861 127.003 88.5541 127.147 88.9488 127.264C89.3434 127.381 89.7381 127.44 90.1328 127.44C90.5914 127.44 91.0341 127.349 91.4608 127.168C91.8981 126.987 92.2554 126.715 92.5328 126.352C92.8208 125.979 92.9648 125.509 92.9648 124.944C92.9648 124.4 92.8314 123.963 92.5648 123.632C92.2981 123.291 91.9568 123.013 91.5408 122.8C91.1248 122.587 90.6821 122.395 90.2128 122.224C89.8501 122.085 89.4874 121.941 89.1248 121.792C88.7621 121.632 88.4314 121.445 88.1328 121.232C87.8341 121.008 87.5941 120.741 87.4128 120.432C87.2421 120.123 87.1568 119.749 87.1568 119.312C87.1568 118.768 87.2954 118.293 87.5728 117.888C87.8501 117.483 88.2234 117.168 88.6928 116.944C89.1728 116.709 89.7168 116.587 90.3248 116.576C90.8581 116.576 91.3968 116.645 91.9408 116.784C92.4954 116.923 92.9754 117.099 93.3808 117.312L93.0768 117.92Z" fill="black"/>
</svg>
